<?xml version="1.0" standalone="no"?><!DOCTYPE svg PUBLIC "-//W3C//DTD SVG 1.1//EN" "http://www.w3.org/Graphics/SVG/1.1/DTD/svg11.dtd"><svg class="icon" width="200px" height="163.71px" viewBox="0 0 1251 1024" version="1.1" xmlns="http://www.w3.org/2000/svg"><path d="M1119.139364 132.694377H986.444988l-30.04401-93.887531C947.638142 17.525672 921.349633 0 896.312958 0H355.520782c-26.288509 0-47.569682 12.518337-56.332518 38.806846l-33.799511 93.887531H132.694377C56.332518 132.694377 0 189.026895 0 265.388753v625.91687c0 77.613692 63.843521 132.694377 132.694377 132.694377h986.444987c77.613692 0 132.694377-60.08802 132.694377-132.694377v-625.91687c0-76.361858-56.332518-132.694377-132.694377-132.694376zM319.217604 560.821516c0-170.249389 137.701711-306.699267 306.699266-306.699267h194.03423l-136.449878 137.701712s-20.02934 23.784841-33.799511 23.784841-23.784841-11.266504-23.784841-23.784841v-72.606357c-133.94621 0-242.855746 108.909535-242.855745 242.855746 0 62.591687 23.784841 120.176039 63.84352 162.738386L400.586797 768.625917c-50.07335-53.828851-81.369193-127.687042-81.369193-207.804401zM625.91687 867.520782H431.882641l136.449877-137.701711s20.02934-23.784841 33.799511-23.784841 23.784841 11.266504 23.784841 23.784841v72.606357c133.94621 0 242.855746-108.909535 242.855746-242.855746 0-62.591687-23.784841-120.176039-63.843521-162.738386L851.246944 350.513447c51.325183 55.080685 82.621027 127.687042 82.621027 209.056235-1.251834 170.249389-137.701711 307.9511-307.951101 307.9511z" /></svg>